<?xml version="1.0" encoding="UTF-8" standalone="no"?>
<svg id="svg2" xmlns:rdf="http://www.w3.org/1999/02/22-rdf-syntax-ns#" xmlns="http://www.w3.org/2000/svg" height="216.52mm" width="106.33mm" version="1.1" xmlns:cc="http://creativecommons.org/ns#" xmlns:dc="http://purl.org/dc/elements/1.1/" viewBox="0 0 376.77064 767.21384">
<g id="layer1" transform="translate(-165.55 -53.201)">
<path id="path4157" d="m230.82 53.201s-34.135 65.377-45.074 100.39c-10.874 34.807-18.407 71.132-19.975 107.56-1.0549 24.508 1.5489 49.359 7.1692 73.238 4.6057 19.568 11.407 38.964 21.514 56.341 9.4524 16.25 35.853 43.541 35.853 43.541s-25.822-64.103-32.268-97.83c-5.4263-28.39-5.9496-57.671-5.1237-86.563 0.67289-23.539 4.1312-46.971 8.1952-70.166 7.4757-42.667 29.71-126.51 29.71-126.51zm246.56 2.6309s12.834 45.279 18.824 68.035c5.5716 21.164 12.497 42.085 15.924 63.701 4.3547 27.47 8.494 55.554 5.788 83.235-3.2343 33.086-7.8737 66.75-23.159 96.271-15.837 30.588-40.978 55.615-70.213 73.829-17.049 10.622-31.028 17.498-48.494 21.712-8.0054 1.9314-18.897 4.9322-24.612 10.861-19.616 20.351-11.005 50.564-7.2361 80.34 5.1073 40.351 8.5003 81.732 19.542 120.88 6.3647 22.564 15.529 45.73 29.677 64.424 8.4822 11.208 31.124 26.776 31.124 26.776s-20.411-34.461-28.23-52.835c-7.6478-17.973-12.671-36.612-16.647-55.736-4.0957-19.697-5.839-40.007-7.2416-60.077-2.3234-33.246-4.341-99.889-4.341-99.889s26.756-11.613 39.812-18.094c15.471-7.6798 31.586-14.51 45.6-24.606 17.451-12.571 33.698-27.29 47.047-44.153 12.612-15.932 23.571-33.704 30.4-52.842 7.478-20.958 9.5534-43.651 10.859-65.865 1.233-20.977 0.1872-42.192-2.894-62.977-5.0369-33.978-13.427-67.663-25.336-99.882-9.42-25.52-36.18-73.118-36.18-73.118zm-202.13 696.05c-4.3477 0.04-8.4859 0.17624-11.786 0.48014-15.394 1.4178-31.003 3.4795-45.561 8.682-8.0753 2.8859-16.423 6.3442-22.599 12.293-3.2308 3.1116-6.9252 7.0843-6.8667 11.569 0.0501 3.8452 3.2668 7.2148 6.1432 9.7672 5.7867 5.1351 13.661 7.4149 20.975 9.9383 16.059 5.5411 32.914 8.711 49.718 11.214 24.984 3.7219 48.769 4.3308 74.027 4.5712 13.157 0.12535 27.827-0.28478 40.957-1.1379 27.379-1.7786 54.944-2.0861 82.078-6.1498 11.61-1.7388 23.414-3.5135 34.353-7.7743 6.2129-2.4199 12.292-5.6016 17.351-9.9448 2.8636-2.4584 5.38-5.4689 7.0508-8.853 0.98999-2.0052 2.0814-4.321 1.6312-6.5115-0.70131-3.412-3.6142-6.129-6.3273-8.3137-7.4548-6.003-16.936-9.1582-26.039-12.115-11.971-3.8888-24.518-6.1328-37.056-7.235-10.387-0.91308-31.281 0.54592-31.281 0.54592s13.545 3.2114 20.251 5.0645c12.018 3.3209 24.15 6.3863 35.793 10.846 4.7835 1.8322 9.652 3.6784 13.924 6.5049 3.3098 2.1899 8.6046 3.998 8.8596 7.9585 0.21956 3.4116-3.765 6.0032-6.689 7.7744-7.0392 4.2639-15.905 4.3974-24.046 5.6038-23.777 3.5233-47.933 3.8899-71.955 4.7027-24.935 0.84374-49.907 0.75544-74.849 0.17755-19.785-0.45836-39.599-1.0231-59.301-2.894-13.27-1.2601-26.619-2.5262-39.589-5.6038-5.1362-1.2188-10.501-2.318-15.009-5.0645-2.2202-1.3526-5.5668-2.8202-5.6038-5.4196-0.0501-3.5368 4.426-5.7016 7.4126-7.5968 9.6391-6.1165 21.381-8.0816 32.36-11.208 9.5055-2.7064 19.215-4.672 28.927-6.5049 10.184-1.9221 30.736-4.7027 30.736-4.7027s-14.943-0.78445-27.986-0.66432z" fill-rule="evenodd"/>
</g>
</svg>
